<svg xmlns="http://www.w3.org/2000/svg" width="820.839" height="231.984" viewBox="0 0 820.839 231.984">
  <g id="Group_3" data-name="Group 3" transform="translate(-835.518 -50.691)">
    <path id="Path_1" data-name="Path 1" d="M625.907,636.615h37.91V552.979h88.862v-34.22H663.817V453.045h88.862V418.826H625.907Z" transform="translate(834.505 -356.198)"/>
    <rect id="Rectangle_1" data-name="Rectangle 1" width="36.066" height="145.837" transform="translate(1612.299 134.58)"/>
    <path id="Path_2" data-name="Path 2" d="M731.159,415.942a26.027,26.027,0,1,0,26.178,26.18A26.057,26.057,0,0,0,731.159,415.942Z" transform="translate(899.02 -358.541)" fill="#fff"/>
    <path id="Path_3999" data-name="Path 3999" d="M368.317,447.731a19.9,19.9,0,0,0-20.68,19.1v19.36h44.32V518.7h-44.32V641.322H307.779V518.7H281.188V486.187h26.591V464a53.351,53.351,0,0,1,54.916-51.74c.408.011.818.029,1.225.051a54.711,54.711,0,0,1,36.942,13.3l-14.8,28.071a37.482,37.482,0,0,0-17.731-5.91" transform="translate(554.33 -361.55)"/>
    <path id="Path_4000" data-name="Path 4000" d="M502.092,453.027V608.163h-31.02l-5.91-17.72h-4.407a55.292,55.292,0,0,1-45.8,19.21c-41.371,0-62.051-29.55-62.051-72.4v-84.27h42.828v73.872c0,19.212,1.47,45.8,28.07,45.8,13.3,0,35.461-7.391,35.461-47.27v-72.4Z" transform="translate(612.618 -328.437)"/>
    <path id="Path_4001" data-name="Path 4001" d="M511.775,484.037c-13.3,0-19.21,5.911-19.21,13.3,0,10.34,13.3,13.3,23.64,16.25,28.07,5.91,56.141,14.8,56.141,47.271s-26.59,50.242-59.1,50.242c-35.461,0-63.532-22.161-65.013-54.662h38.41A24.928,24.928,0,0,0,513.232,578.6c16.251,0,19.212-8.859,19.212-14.8,0-11.819-10.34-14.8-22.159-17.731-17.731-4.418-57.622-11.819-57.622-47.28,0-31.02,29.608-45.79,59.112-45.79,35.463,0,57.622,20.691,59.092,47.27H532.456c0-7.391-4.409-16.25-20.693-16.25" transform="translate(690.097 -328.426)"/>
    <path id="Path_4002" data-name="Path 4002" d="M567.088,511.941h69.465a31.408,31.408,0,0,0-32.512-25.121A36.3,36.3,0,0,0,567.1,511.941m110.812,31.02H564.151a39.345,39.345,0,0,0,41.371,32.512,35.7,35.7,0,0,0,29.552-13.3h39.855a74.551,74.551,0,0,1-70.91,48.751,78.575,78.575,0,0,1-78.348-78.792v-2.471A75.694,75.694,0,0,1,598.7,451.393h3.8c39.857,0,81.262,28.071,75.342,91.6" transform="translate(753 -329.728)"/>
  </g>
</svg>
